<?xml version="1.0" standalone="no"?>
<!DOCTYPE svg PUBLIC "-//W3C//DTD SVG 20010904//EN"
 "http://www.w3.org/TR/2001/REC-SVG-20010904/DTD/svg10.dtd">
<svg version="1.0" xmlns="http://www.w3.org/2000/svg"
 width="512.000000pt" height="512.000000pt" viewBox="0 0 512.000000 512.000000"
 preserveAspectRatio="xMidYMid meet">
<metadata>
Created by potrace 1.14, written by Peter Selinger 2001-2017
</metadata>
<g transform="translate(0.000000,512.000000) scale(0.100000,-0.100000)"
fill="#000000" stroke="none">
<path d="M2379 5116 c-2 -2 -40 -6 -83 -10 -44 -4 -82 -8 -85 -10 -3 -2 -31
-7 -61 -11 -30 -3 -75 -11 -100 -17 -25 -5 -56 -12 -70 -14 -14 -3 -47 -12
-75 -20 -27 -8 -50 -14 -50 -13 0 3 -131 -40 -160 -52 -16 -7 -32 -13 -35 -13
-3 -1 -11 -5 -17 -9 -7 -5 -13 -5 -13 -1 0 3 -11 -1 -25 -10 -14 -9 -25 -14
-25 -11 0 3 -26 -8 -57 -24 -31 -16 -61 -27 -65 -25 -4 3 -8 1 -8 -5 0 -5 -10
-13 -22 -16 -13 -4 -44 -20 -70 -36 -27 -16 -48 -25 -48 -21 0 4 -4 2 -8 -4
-4 -6 -27 -22 -52 -35 -76 -41 -116 -69 -255 -176 -135 -103 -273 -233 -365
-342 -25 -30 -49 -59 -55 -65 -37 -41 -85 -106 -85 -114 0 -6 -4 -12 -9 -14
-12 -4 -121 -173 -121 -187 0 -6 -4 -11 -8 -11 -5 0 -19 -23 -32 -50 l-24 -50
-51 4 c-61 5 -69 1 -80 -39 -10 -36 -13 -115 -5 -115 3 0 7 -10 7 -22 1 -13
10 -28 19 -35 13 -9 14 -13 4 -13 -7 0 -10 -3 -7 -7 4 -3 2 -11 -3 -18 -5 -6
-11 -20 -13 -31 -2 -10 -9 -30 -14 -44 -21 -51 -43 -121 -43 -138 0 -10 -4
-22 -9 -27 -9 -10 -45 -158 -55 -229 -4 -21 -8 -41 -10 -45 -2 -3 -7 -33 -11
-66 -3 -33 -10 -89 -15 -125 -8 -65 -5 -477 3 -515 3 -11 9 -49 13 -85 4 -36
9 -67 9 -70 1 -3 5 -23 9 -45 4 -22 14 -69 23 -104 8 -36 16 -72 18 -80 2 -9
10 -37 18 -63 8 -26 12 -49 9 -52 -3 -4 0 -6 6 -6 7 0 12 -9 12 -20 0 -12 9
-40 20 -62 11 -23 20 -47 20 -54 0 -6 17 -47 37 -90 20 -44 37 -81 38 -84 4
-18 71 -146 77 -148 4 -2 8 -9 8 -15 0 -18 131 -217 209 -316 83 -107 123
-152 232 -260 83 -82 97 -95 174 -156 28 -21 55 -44 60 -50 17 -19 237 -161
310 -201 39 -21 73 -42 76 -47 3 -5 9 -8 13 -7 4 1 32 -11 64 -26 93 -43 116
-53 132 -56 8 -2 17 -5 20 -8 9 -9 104 -43 123 -43 9 -1 17 -6 17 -11 0 -5 3
-6 7 -3 3 4 11 3 17 -2 6 -6 23 -12 36 -14 14 -2 32 -7 40 -10 8 -4 26 -9 40
-11 14 -3 62 -14 108 -25 45 -10 85 -19 87 -20 3 0 20 -2 38 -5 153 -25 224
-30 422 -31 105 0 219 3 255 7 100 12 153 19 175 23 11 2 34 7 50 10 137 26
283 66 415 114 107 40 103 38 114 39 5 0 12 4 15 9 9 11 79 43 96 43 8 0 15 4
15 9 0 5 17 16 38 24 85 36 373 223 444 289 16 16 32 28 36 28 12 0 242 229
242 241 0 6 5 7 10 4 6 -3 10 -2 10 3 0 5 12 22 26 38 14 16 33 38 43 49 39
44 143 190 194 273 48 77 141 248 142 262 1 3 11 24 23 47 12 24 20 43 17 43
-2 0 4 15 14 33 10 17 28 64 40 102 12 39 26 79 31 90 5 11 15 40 21 65 7 25
14 50 15 55 2 6 5 21 8 35 3 14 8 36 12 50 23 97 36 178 51 315 10 91 10 409
0 505 -13 126 -16 154 -21 176 -3 12 -8 39 -12 60 -3 21 -10 46 -15 55 -4 9
-6 18 -4 21 3 2 -4 34 -15 71 -20 70 -21 76 -25 92 -8 33 -50 156 -63 185 -22
48 -23 62 -6 74 20 16 31 63 28 124 -3 76 -20 91 -94 85 -53 -4 -59 -2 -65 17
-8 25 -26 55 -127 208 -42 64 -86 127 -97 139 -12 12 -21 25 -21 28 0 3 -8 14
-17 25 -10 10 -38 42 -63 70 -51 58 -203 212 -246 250 -16 13 -72 57 -124 97
-52 40 -103 79 -112 88 -10 8 -22 15 -27 15 -4 0 -19 9 -32 19 -29 22 -73 49
-149 89 -30 16 -76 41 -102 55 -27 14 -48 22 -48 19 0 -4 -4 -1 -9 6 -4 7 -14
15 -22 16 -13 3 -63 23 -114 46 -28 12 -166 61 -190 66 -28 7 -38 10 -55 17
-8 4 -26 8 -40 9 -14 2 -29 6 -35 9 -13 8 -160 40 -171 38 -5 -1 -11 0 -14 1
-9 3 -45 10 -90 15 -25 4 -56 9 -70 11 -28 6 -456 15 -461 10z"/>
</g>
</svg>
