<svg version="1.1" id="Layer_1" xmlns="http://www.w3.org/2000/svg" xmlns:xlink="http://www.w3.org/1999/xlink" x="0px" y="0px"
	 width="100%" viewBox="0 0 512 512" enable-background="new 0 0 512 512" xml:space="preserve">
<path fill="#FECC4D" opacity="1.000000" stroke="none" 
	d="
M1.000002,290.000000 
	C1.000000,268.312439 1.000000,246.624878 1.327387,224.817566 
	C2.769006,219.048248 3.529105,213.300430 5.064416,207.767715 
	C9.524452,191.695312 14.295244,175.709152 19.334740,159.657867 
	C23.390728,161.177109 27.069101,162.697769 30.718927,164.284103 
	C39.755909,168.211884 44.397461,174.690521 45.356941,184.931808 
	C47.079098,203.313675 49.930782,221.566391 56.119843,239.154510 
	C62.903263,258.431702 75.730835,271.142700 95.201385,277.479218 
	C115.997261,284.246979 137.241089,286.541016 158.827286,283.613190 
	C214.888992,276.009338 227.440018,251.148315 234.541107,214.133926 
	C234.823532,212.661728 235.090744,211.186615 235.367813,209.713379 
	C236.691299,202.676086 237.793884,195.588120 239.392746,188.613953 
	C241.680695,178.634003 247.493744,174.123474 257.424072,174.071594 
	C267.590332,174.018494 273.440277,178.607742 275.861206,188.779175 
	C276.901459,193.149673 277.515320,197.620071 278.484985,202.009293 
	C280.853210,212.729324 282.732971,223.602509 285.866272,234.098511 
	C291.744904,253.790558 304.463379,267.744446 323.729523,275.204010 
	C358.216034,288.556702 392.733582,288.057037 427.068115,274.562286 
	C440.597107,269.244904 450.174011,259.615356 455.927521,246.312988 
	C458.168610,241.131561 460.592804,235.867004 461.705200,230.390762 
	C464.814636,215.083893 467.086823,199.607941 470.120239,184.284012 
	C471.055542,179.559158 472.152100,173.776962 475.345978,170.839752 
	C480.331573,166.254761 487.142975,163.635269 493.263733,160.336960 
	C493.839355,160.026764 495.006561,160.814438 495.952271,161.474716 
	C503.022400,181.294418 508.845367,201.028229 511.077057,221.678558 
	C511.167114,222.511902 512.334534,223.228836 513.000000,224.000000 
	C513.000000,245.687561 513.000000,267.375122 512.672607,289.182434 
	C511.899536,290.131439 511.203064,290.916687 511.048584,291.797028 
	C509.982727,297.871979 509.195679,303.999146 508.013153,310.049774 
	C501.575684,342.988129 489.400635,373.620941 469.879395,400.996613 
	C460.891327,413.601044 451.693085,426.335999 440.807526,437.230621 
	C429.202026,448.845764 415.700684,458.628357 402.646088,468.718109 
	C386.509888,481.189636 368.216705,489.896881 349.201355,496.940582 
	C330.496094,503.869446 311.364105,509.376862 291.339661,511.108978 
	C290.842285,511.152008 290.444305,512.343872 290.000000,513.000000 
	C268.312439,513.000000 246.624878,513.000000 224.817566,512.672607 
	C224.034775,511.908386 223.417816,511.198425 222.701447,511.077515 
	C216.293091,509.996124 209.817505,509.263062 203.454910,507.969116 
	C170.927780,501.354065 140.470505,489.660553 113.479805,470.007019 
	C101.629425,461.378113 89.349174,453.017548 78.931557,442.830017 
	C67.642662,431.790436 58.194004,418.848419 48.127815,406.584167 
	C34.509926,389.992615 25.248665,370.854248 17.674702,351.030670 
	C10.395933,331.979736 4.731555,312.347595 2.915428,291.838318 
	C2.856621,291.174194 1.664057,290.610504 1.000002,290.000000 
M200.108276,410.400085 
	C200.115585,412.227539 200.035095,414.060211 200.144104,415.881592 
	C201.010056,430.348724 212.002060,442.153046 225.986298,442.950623 
	C234.259598,443.422485 242.586792,442.949554 251.813721,443.084686 
	C255.579239,443.023590 259.344757,442.962494 264.027527,443.022949 
	C271.492432,443.052643 278.961517,443.253479 286.421326,443.072784 
	C298.275909,442.785614 308.769775,435.127502 312.162628,423.787842 
	C313.512939,419.274811 313.413757,414.328094 314.745514,409.391083 
	C346.103455,396.675385 370.819092,375.808075 389.954773,348.096710 
	C392.441162,344.496033 393.500824,340.770142 389.973206,337.261841 
	C386.407379,333.715454 382.967560,335.262085 379.169891,337.451416 
	C367.063141,344.430908 355.134674,351.874847 342.484161,357.727570 
	C300.242554,377.270752 256.381714,383.621063 210.710388,371.743988 
	C183.868866,364.763672 158.966187,353.426117 135.757111,338.265350 
	C133.491241,336.785187 130.646469,335.200867 128.131088,335.294556 
	C122.500748,335.504333 119.698128,342.091461 123.514427,346.984985 
	C131.380951,357.071899 139.235245,367.322693 148.302338,376.284027 
	C163.106583,390.915680 180.288910,402.360352 200.108276,410.400085 
z"/>
<path fill="#FECC4D" opacity="1.000000" stroke="none" 
	d="
M224.000000,1.000000 
	C245.687561,1.000000 267.375122,1.000000 289.182495,1.326715 
	C289.965607,2.090744 290.582764,2.801684 291.299438,2.922592 
	C297.714630,4.004867 304.197357,4.737437 310.566467,6.033469 
	C343.133636,12.660451 373.596619,24.500273 400.631683,44.078846 
	C413.466827,53.373955 426.591217,62.643181 437.767181,73.752441 
	C449.310486,85.226875 459.033051,98.633324 468.806763,111.750015 
	C474.662964,119.609238 479.090790,128.532806 483.863037,137.274857 
	C476.931183,136.499680 469.681061,136.793274 463.766296,134.125793 
	C433.676605,120.555672 402.160400,114.989044 369.423553,116.056374 
	C343.743744,116.893623 319.387970,122.804451 297.276215,136.693649 
	C292.927032,139.425507 287.554504,141.644943 282.520477,141.958618 
	C267.922485,142.868195 253.253922,142.967636 238.618347,142.828293 
	C230.219299,142.748337 222.238754,140.677338 215.244995,135.321426 
	C211.727951,132.628006 207.486786,130.785538 203.397675,128.948761 
	C171.903229,114.801834 138.965866,113.497536 105.432167,118.388115 
	C86.562798,121.140030 68.375137,126.258736 51.039749,134.450272 
	C44.464489,137.557297 37.323025,139.515610 29.928696,136.602539 
	C34.658920,128.492386 38.810925,120.372795 44.115681,113.093254 
	C52.751282,101.242867 61.232243,89.048637 71.456985,78.649956 
	C82.535423,67.383064 95.378860,57.811268 107.736290,47.852276 
	C124.299385,34.503887 143.252075,25.206816 162.944260,17.657356 
	C182.010208,10.347980 201.659988,4.792138 222.159698,2.915747 
	C222.826004,2.854758 223.388901,1.664071 224.000000,1.000000 
z"/>
<path fill="#000000" opacity="1.000000" stroke="none" 
	d="
M290.468658,513.000000 
	C290.444305,512.343872 290.842285,511.152008 291.339661,511.108978 
	C311.364105,509.376862 330.496094,503.869446 349.201355,496.940582 
	C368.216705,489.896881 386.509888,481.189636 402.646088,468.718109 
	C415.700684,458.628357 429.202026,448.845764 440.807526,437.230621 
	C451.693085,426.335999 460.891327,413.601044 469.879395,400.996613 
	C489.400635,373.620941 501.575684,342.988129 508.013153,310.049774 
	C509.195679,303.999146 509.982727,297.871979 511.048584,291.797028 
	C511.203064,290.916687 511.899536,290.131439 512.672607,289.651093 
	C513.000000,364.260345 513.000000,438.520721 513.000000,513.000000 
	C438.979248,513.000000 364.958282,513.000000 290.468658,513.000000 
z"/>
<path fill="#000000" opacity="1.000000" stroke="none" 
	d="
M1.000002,290.468658 
	C1.664057,290.610504 2.856621,291.174194 2.915428,291.838318 
	C4.731555,312.347595 10.395933,331.979736 17.674702,351.030670 
	C25.248665,370.854248 34.509926,389.992615 48.127815,406.584167 
	C58.194004,418.848419 67.642662,431.790436 78.931557,442.830017 
	C89.349174,453.017548 101.629425,461.378113 113.479805,470.007019 
	C140.470505,489.660553 170.927780,501.354065 203.454910,507.969116 
	C209.817505,509.263062 216.293091,509.996124 222.701447,511.077515 
	C223.417816,511.198425 224.034775,511.908386 224.348907,512.672607 
	C149.739639,513.000000 75.479271,513.000000 1.000000,513.000000 
	C1.000000,438.979248 1.000000,364.958282 1.000002,290.468658 
z"/>
<path fill="#000000" opacity="1.000000" stroke="none" 
	d="
M223.531342,1.000000 
	C223.388901,1.664071 222.826004,2.854758 222.159698,2.915747 
	C201.659988,4.792138 182.010208,10.347980 162.944260,17.657356 
	C143.252075,25.206816 124.299385,34.503887 107.736290,47.852276 
	C95.378860,57.811268 82.535423,67.383064 71.456985,78.649956 
	C61.232243,89.048637 52.751282,101.242867 44.115681,113.093254 
	C38.810925,120.372795 34.658920,128.492386 29.477413,136.605774 
	C26.328129,136.992691 23.635990,136.696091 21.074368,137.144699 
	C19.597734,137.403290 17.411955,138.641907 17.123447,139.824432 
	C15.475374,146.579498 14.527482,153.427826 18.944134,159.689163 
	C14.295244,175.709152 9.524452,191.695312 5.064416,207.767715 
	C3.529105,213.300430 2.769006,219.048248 1.327387,224.348907 
	C1.000000,149.739624 1.000000,75.479248 1.000000,1.000000 
	C75.020752,1.000000 149.041718,1.000000 223.531342,1.000000 
z"/>
<path fill="#000000" opacity="1.000000" stroke="none" 
	d="
M484.160614,136.977997 
	C479.090790,128.532806 474.662964,119.609238 468.806763,111.750015 
	C459.033051,98.633324 449.310486,85.226875 437.767181,73.752441 
	C426.591217,62.643181 413.466827,53.373955 400.631683,44.078846 
	C373.596619,24.500273 343.133636,12.660451 310.566467,6.033469 
	C304.197357,4.737437 297.714630,4.004867 291.299438,2.922592 
	C290.582764,2.801684 289.965607,2.090744 289.651154,1.326715 
	C364.260345,1.000000 438.520721,1.000000 513.000000,1.000000 
	C513.000000,75.020752 513.000000,149.041718 513.000000,223.531342 
	C512.334534,223.228836 511.167114,222.511902 511.077057,221.678558 
	C508.845367,201.028229 503.022400,181.294418 496.028473,161.106277 
	C500.427307,154.659195 498.966370,148.040253 498.790527,141.707611 
	C498.701172,138.488571 496.627747,136.749893 493.099457,136.972000 
	C490.131470,137.158829 487.141083,136.989609 484.160614,136.977997 
z"/>
<path fill="#2C3133" opacity="1.000000" stroke="none" 
	d="
M483.863037,137.274857 
	C487.141083,136.989609 490.131470,137.158829 493.099457,136.972000 
	C496.627747,136.749893 498.701172,138.488571 498.790527,141.707611 
	C498.966370,148.040253 500.427307,154.659195 495.975281,160.723953 
	C495.006561,160.814438 493.839355,160.026764 493.263733,160.336960 
	C487.142975,163.635269 480.331573,166.254761 475.345978,170.839752 
	C472.152100,173.776962 471.055542,179.559158 470.120239,184.284012 
	C467.086823,199.607941 464.814636,215.083893 461.705200,230.390762 
	C460.592804,235.867004 458.168610,241.131561 455.927521,246.312988 
	C450.174011,259.615356 440.597107,269.244904 427.068115,274.562286 
	C392.733582,288.057037 358.216034,288.556702 323.729523,275.204010 
	C304.463379,267.744446 291.744904,253.790558 285.866272,234.098511 
	C282.732971,223.602509 280.853210,212.729324 278.484985,202.009293 
	C277.515320,197.620071 276.901459,193.149673 275.861206,188.779175 
	C273.440277,178.607742 267.590332,174.018494 257.424072,174.071594 
	C247.493744,174.123474 241.680695,178.634003 239.392746,188.613953 
	C237.793884,195.588120 236.691299,202.676086 235.367813,209.713379 
	C235.090744,211.186615 234.823532,212.661728 234.541107,214.133926 
	C227.440018,251.148315 214.888992,276.009338 158.827286,283.613190 
	C137.241089,286.541016 115.997261,284.246979 95.201385,277.479218 
	C75.730835,271.142700 62.903263,258.431702 56.119843,239.154510 
	C49.930782,221.566391 47.079098,203.313675 45.356941,184.931808 
	C44.397461,174.690521 39.755909,168.211884 30.718927,164.284103 
	C27.069101,162.697769 23.390728,161.177109 19.334740,159.657867 
	C14.527482,153.427826 15.475374,146.579498 17.123447,139.824432 
	C17.411955,138.641907 19.597734,137.403290 21.074368,137.144699 
	C23.635990,136.696091 26.328129,136.992691 29.416819,136.973557 
	C37.323025,139.515610 44.464489,137.557297 51.039749,134.450272 
	C68.375137,126.258736 86.562798,121.140030 105.432167,118.388115 
	C138.965866,113.497536 171.903229,114.801834 203.397675,128.948761 
	C207.486786,130.785538 211.727951,132.628006 215.244995,135.321426 
	C222.238754,140.677338 230.219299,142.748337 238.618347,142.828293 
	C253.253922,142.967636 267.922485,142.868195 282.520477,141.958618 
	C287.554504,141.644943 292.927032,139.425507 297.276215,136.693649 
	C319.387970,122.804451 343.743744,116.893623 369.423553,116.056374 
	C402.160400,114.989044 433.676605,120.555672 463.766296,134.125793 
	C469.681061,136.793274 476.931183,136.499680 483.863037,137.274857 
M308.129486,207.314148 
	C308.524261,209.441742 308.847626,211.585526 309.325165,213.694382 
	C313.055939,230.169907 320.002136,243.973328 337.218170,250.500916 
	C363.380737,260.420624 389.117523,258.064484 414.837921,249.082321 
	C422.470520,246.416840 427.795624,241.174683 429.927307,233.574387 
	C433.332275,221.434357 436.662811,209.194992 438.729156,196.781937 
	C440.494049,186.179871 440.805634,175.282791 441.047211,164.500229 
	C441.191010,158.082169 437.661957,153.962540 430.978424,152.057709 
	C409.945770,146.063278 388.567047,143.420090 366.758484,144.505875 
	C352.263489,145.227539 337.841034,146.598267 324.124115,151.954010 
	C312.197388,156.610779 306.068207,165.494415 306.122406,178.075912 
	C306.163116,187.533585 307.353790,196.986298 308.129486,207.314148 
M108.258919,146.723007 
	C100.787056,148.394272 93.250206,149.822327 85.859558,151.797470 
	C76.320198,154.346893 73.773987,157.315933 73.884499,167.352982 
	C73.984947,176.475403 74.477524,185.716904 76.099739,194.669922 
	C78.464104,207.718918 81.658257,220.648758 85.161232,233.448029 
	C87.125053,240.623505 92.002007,245.976257 99.259048,248.647354 
	C122.813232,257.316895 146.696747,259.988617 171.224121,252.913452 
	C187.467270,248.227936 198.765381,238.609253 203.563385,222.013260 
	C207.952499,206.831589 209.773651,191.328842 208.906158,175.593658 
	C208.328857,165.121750 203.241058,157.056381 193.339050,153.054611 
	C187.054749,150.514847 180.434677,148.469131 173.773087,147.261841 
	C152.299774,143.370209 130.707855,143.264511 108.258919,146.723007 
z"/>
<path fill="#67491C" opacity="1.000000" stroke="none" 
	d="
M263.110260,442.901398 
	C259.344757,442.962494 255.579239,443.023590 251.352203,442.534058 
	C250.890701,425.383911 250.890701,408.784363 250.890701,392.904205 
	C233.705643,390.096649 217.334915,387.422150 200.022583,384.593811 
	C200.022583,392.751678 200.022583,401.169647 200.022583,409.587646 
	C180.288910,402.360352 163.106583,390.915680 148.302338,376.284027 
	C139.235245,367.322693 131.380951,357.071899 123.514427,346.984985 
	C119.698128,342.091461 122.500748,335.504333 128.131088,335.294556 
	C130.646469,335.200867 133.491241,336.785187 135.757111,338.265350 
	C158.966187,353.426117 183.868866,364.763672 210.710388,371.743988 
	C256.381714,383.621063 300.242554,377.270752 342.484161,357.727570 
	C355.134674,351.874847 367.063141,344.430908 379.169891,337.451416 
	C382.967560,335.262085 386.407379,333.715454 389.973206,337.261841 
	C393.500824,340.770142 392.441162,344.496033 389.954773,348.096710 
	C370.819092,375.808075 346.103455,396.675385 314.216492,409.032227 
	C313.687439,400.570251 313.687439,392.467163 313.687439,384.651337 
	C296.586700,387.437286 280.096924,390.123688 263.110260,392.891052 
	C263.110260,409.304169 263.110260,426.102783 263.110260,442.901398 
z"/>
<path fill="#FEFDFC" opacity="1.000000" stroke="none" 
	d="
M263.568909,442.962158 
	C263.110260,426.102783 263.110260,409.304169 263.110260,392.891052 
	C280.096924,390.123688 296.586700,387.437286 313.687439,384.651337 
	C313.687439,392.467163 313.687439,400.570251 313.830933,409.126068 
	C313.413757,414.328094 313.512939,419.274811 312.162628,423.787842 
	C308.769775,435.127502 298.275909,442.785614 286.421326,443.072784 
	C278.961517,443.253479 271.492432,443.052643 263.568909,442.962158 
z"/>
<path fill="#FEFDFC" opacity="1.000000" stroke="none" 
	d="
M200.065430,409.993866 
	C200.022583,401.169647 200.022583,392.751678 200.022583,384.593811 
	C217.334915,387.422150 233.705643,390.096649 250.890701,392.904205 
	C250.890701,408.784363 250.890701,425.383911 250.890228,442.442444 
	C242.586792,442.949554 234.259598,443.422485 225.986298,442.950623 
	C212.002060,442.153046 201.010056,430.348724 200.144104,415.881592 
	C200.035095,414.060211 200.115585,412.227539 200.065430,409.993866 
z"/>
<path fill="#FCCA4C" opacity="1.000000" stroke="none" 
	d="
M308.081024,206.877686 
	C307.353790,196.986298 306.163116,187.533585 306.122406,178.075912 
	C306.068207,165.494415 312.197388,156.610779 324.124115,151.954010 
	C337.841034,146.598267 352.263489,145.227539 366.758484,144.505875 
	C388.567047,143.420090 409.945770,146.063278 430.978424,152.057709 
	C437.661957,153.962540 441.191010,158.082169 441.047211,164.500229 
	C440.805634,175.282791 440.494049,186.179871 438.729156,196.781937 
	C436.662811,209.194992 433.332275,221.434357 429.927307,233.574387 
	C427.795624,241.174683 422.470520,246.416840 414.837921,249.082321 
	C389.117523,258.064484 363.380737,260.420624 337.218170,250.500916 
	C320.002136,243.973328 313.055939,230.169907 309.325165,213.694382 
	C308.847626,211.585526 308.524261,209.441742 308.081024,206.877686 
M356.643036,157.575378 
	C345.481567,154.575577 335.810699,158.153198 329.011139,169.177078 
	C317.119690,188.456238 316.887482,208.580048 327.088806,228.599564 
	C331.750549,237.747940 338.988922,244.668747 350.050385,244.545807 
	C361.060577,244.423401 368.170685,237.433228 372.851807,228.285034 
	C382.270721,209.877853 382.168488,191.172409 372.927124,172.680099 
	C369.572998,165.968338 364.511200,160.738235 356.643036,157.575378 
z"/>
<path fill="#FCCA4C" opacity="1.000000" stroke="none" 
	d="
M108.688454,146.646149 
	C130.707855,143.264511 152.299774,143.370209 173.773087,147.261841 
	C180.434677,148.469131 187.054749,150.514847 193.339050,153.054611 
	C203.241058,157.056381 208.328857,165.121750 208.906158,175.593658 
	C209.773651,191.328842 207.952499,206.831589 203.563385,222.013260 
	C198.765381,238.609253 187.467270,248.227936 171.224121,252.913452 
	C146.696747,259.988617 122.813232,257.316895 99.259048,248.647354 
	C92.002007,245.976257 87.125053,240.623505 85.161232,233.448029 
	C81.658257,220.648758 78.464104,207.718918 76.099739,194.669922 
	C74.477524,185.716904 73.984947,176.475403 73.884499,167.352982 
	C73.773987,157.315933 76.320198,154.346893 85.859558,151.797470 
	C93.250206,149.822327 100.787056,148.394272 108.688454,146.646149 
M145.316605,233.125351 
	C158.033356,249.101013 175.121368,248.409958 186.452240,231.422150 
	C191.560532,223.763596 194.214722,215.198257 194.817093,206.099976 
	C195.876511,190.098602 193.089691,175.108124 181.169891,163.300735 
	C171.744904,153.964630 158.958115,153.950623 149.514755,163.249344 
	C146.257431,166.456787 143.210739,170.316193 141.377686,174.457550 
	C132.586823,194.318375 133.078461,213.823669 145.316605,233.125351 
z"/>
<path fill="#67491C" opacity="1.000000" stroke="none" 
	d="
M357.012268,157.700821 
	C364.511200,160.738235 369.572998,165.968338 372.927124,172.680099 
	C382.168488,191.172409 382.270721,209.877853 372.851807,228.285034 
	C368.170685,237.433228 361.060577,244.423401 350.050385,244.545807 
	C338.988922,244.668747 331.750549,237.747940 327.088806,228.599564 
	C316.887482,208.580048 317.119690,188.456238 329.011139,169.177078 
	C335.810699,158.153198 345.481567,154.575577 357.012268,157.700821 
z"/>
<path fill="#67491C" opacity="1.000000" stroke="none" 
	d="
M145.105774,232.831650 
	C133.078461,213.823669 132.586823,194.318375 141.377686,174.457550 
	C143.210739,170.316193 146.257431,166.456787 149.514755,163.249344 
	C158.958115,153.950623 171.744904,153.964630 181.169891,163.300735 
	C193.089691,175.108124 195.876511,190.098602 194.817093,206.099976 
	C194.214722,215.198257 191.560532,223.763596 186.452240,231.422150 
	C175.121368,248.409958 158.033356,249.101013 145.105774,232.831650 
z"/>
</svg>